# xmcd
#
# Track frame offsets: 
#        150
#        20091
#        37794
#        56686
#        86702
#        106423
#        123519
#        144684
#        168869
#        190824
#        208014
#        226242
#
# Disc length: 3467 seconds
#
# Revision: 1
# Processed by: cddbd v1.5.2PL0 Copyright (c) Steve Scherf et al.
# Submitted via: ExactAudioCopy v0.99pb4
#
DISCID=a10d890c
DTITLE=Mark Knopfler - Kill To Get Crimson
DYEAR=2007
DGENRE=Prog. Rock
TTITLE0=True Love Will Never Fade
TTITLE1=The Scaffolder's Wife
TTITLE2=The Fizzy And The Still
TTITLE3=Heart Full Of Holes
TTITLE4=We Can Get Wild
TTITLE5=Secondary Waltz
TTITLE6=Punish The Monkey
TTITLE7=Let It All Go
TTITLE8=Behind With The Rent
TTITLE9=The Fish And The Bird
TTITLE10=Madame Geneva's
TTITLE11=In The Sky
EXTD=
EXTT0=
EXTT1=
EXTT2=
EXTT3=
EXTT4=
EXTT5=
EXTT6=
EXTT7=
EXTT8=
EXTT9=
EXTT10=
EXTT11=
PLAYORDER=
